<?xml version="1.0" standalone="no"?>
<!DOCTYPE svg PUBLIC "-//W3C//DTD SVG 20010904//EN"
 "http://www.w3.org/TR/2001/REC-SVG-20010904/DTD/svg10.dtd">
<svg version="1.0" xmlns="http://www.w3.org/2000/svg"
 width="2048.000000pt" height="1587.000000pt" viewBox="0 0 2048.000000 1587.000000"
 preserveAspectRatio="xMidYMid meet">

<g transform="translate(0.000000,1587.000000) scale(0.100000,-0.100000)"
fill="#000000" stroke="none">
<path d="M12840 15023 c-681 -21 -1273 -91 -1935 -229 -207 -43 -700 -165
-785 -193 -14 -5 -52 -17 -85 -26 -500 -141 -1176 -391 -1690 -625 -336 -153
-529 -249 -850 -422 -198 -108 -460 -256 -569 -323 -18 -11 -84 -51 -147 -89
-63 -39 -139 -86 -169 -106 -30 -20 -116 -77 -190 -126 -269 -177 -682 -477
-940 -684 -179 -143 -230 -185 -321 -263 -574 -491 -1110 -1040 -1536 -1572
-53 -66 -113 -140 -133 -165 -134 -165 -560 -774 -560 -800 0 -5 13 -11 29
-15 49 -11 121 -65 156 -119 18 -28 77 -168 130 -311 107 -287 418 -1118 472
-1260 19 -49 38 -101 43 -115 14 -42 70 -194 79 -215 13 -29 76 -196 302 -800
111 -297 217 -580 236 -630 18 -49 41 -110 50 -135 110 -313 210 -551 276
-655 148 -236 354 -381 582 -409 70 -9 115 15 133 69 16 47 5 144 -34 291 -29
112 -120 374 -182 524 -6 14 -27 70 -47 125 -19 55 -40 109 -45 120 -8 18 -59
155 -125 335 -13 36 -34 90 -45 120 -12 30 -32 84 -45 120 -13 36 -33 90 -45
120 -11 30 -27 71 -34 90 -57 155 -129 349 -136 365 -8 17 -329 875 -366 975
-16 44 -187 502 -221 590 -13 36 -28 76 -33 90 -5 14 -23 63 -41 110 -71 188
-99 277 -99 316 0 55 27 142 56 181 42 56 875 883 904 898 24 12 355 139 475
182 22 8 137 51 255 95 118 45 233 87 255 95 22 7 49 17 60 22 11 5 56 22 100
39 44 16 143 53 220 82 77 28 169 63 205 76 174 65 198 74 325 122 44 17 262
99 485 182 223 83 414 155 425 160 18 8 273 103 459 171 92 34 173 38 238 12
24 -9 99 -53 168 -98 233 -152 434 -284 682 -447 233 -154 571 -374 630 -412
l26 -17 -28 78 c-16 43 -38 103 -50 133 -12 30 -25 66 -30 80 -12 36 -97 264
-128 340 -19 48 -27 88 -30 153 -6 147 -15 135 472 623 232 231 439 432 461
447 22 14 69 36 105 50 331 125 467 175 570 212 25 8 54 19 65 24 49 21 179
70 570 217 187 70 363 136 390 146 76 30 177 58 205 58 42 0 133 -33 175 -64
40 -29 105 -106 105 -125 0 -6 7 -25 15 -43 17 -38 60 -152 135 -353 28 -77
55 -144 60 -149 5 -4 15 5 24 21 26 52 204 283 321 418 250 288 586 599 914
844 168 126 187 139 264 192 486 334 970 535 1566 650 l64 12 -54 27 c-46 24
-108 50 -349 145 -35 14 -126 46 -255 90 -439 148 -1020 267 -1565 319 -305
30 -778 47 -1040 39z"/>
<path d="M16360 14124 c-518 -55 -1044 -231 -1491 -497 -221 -131 -562 -390
-839 -637 -433 -386 -843 -875 -1075 -1282 -36 -62 -68 -119 -73 -127 -5 -10
-37 65 -97 225 -48 131 -107 289 -130 349 -24 61 -68 178 -98 260 -105 286
-97 267 -121 262 -21 -5 -514 -190 -551 -207 -11 -5 -69 -27 -130 -49 -60 -22
-159 -59 -220 -81 -60 -23 -137 -52 -170 -64 -80 -30 -226 -85 -355 -134 -58
-22 -144 -54 -191 -71 l-85 -32 -404 -404 -404 -404 11 -33 c6 -18 22 -62 36
-98 14 -36 73 -193 131 -350 59 -157 124 -330 145 -385 22 -55 78 -206 126
-335 48 -129 98 -264 111 -299 13 -35 23 -65 21 -67 -1 -1 -27 14 -58 34 -30
20 -168 111 -307 202 -139 91 -342 224 -451 295 -109 72 -318 209 -465 305
-146 96 -356 234 -465 305 -511 336 -476 315 -507 305 -16 -5 -76 -27 -134
-50 -58 -23 -116 -45 -130 -50 -21 -6 -506 -188 -675 -252 -27 -10 -79 -30
-115 -43 -36 -13 -101 -37 -145 -54 -44 -16 -147 -55 -230 -86 -133 -49 -260
-97 -377 -141 -21 -8 -55 -21 -75 -29 -36 -14 -214 -80 -995 -371 l-348 -129
-400 -400 -401 -401 27 -69 c14 -39 39 -105 55 -148 57 -153 88 -238 244 -652
87 -231 164 -438 172 -460 8 -22 48 -130 90 -240 86 -228 114 -303 148 -395
31 -86 69 -186 155 -415 40 -104 85 -224 100 -265 26 -73 323 -864 362 -965
65 -171 129 -399 148 -535 15 -101 16 -306 2 -355 -15 -52 -64 -110 -113 -135
-155 -80 -437 -61 -673 44 -181 80 -384 268 -514 476 -63 100 -147 299 -303
715 -94 253 -178 478 -186 499 -17 49 -159 429 -178 476 -7 19 -27 73 -45 120
-17 47 -37 101 -45 120 -47 123 -111 293 -150 400 -55 150 -60 163 -260 695
-87 231 -164 436 -171 455 -16 46 -159 427 -191 510 -14 36 -27 75 -30 88 -7
28 3 30 -213 -53 -19 -7 -71 -27 -115 -43 -101 -38 -271 -101 -310 -116 -16
-6 -269 -101 -562 -211 l-532 -199 -406 -406 -406 -406 15 -35 c8 -19 45 -115
81 -214 37 -99 73 -197 81 -217 8 -21 20 -55 28 -75 8 -21 35 -92 60 -158 25
-66 150 -399 277 -740 128 -341 241 -642 251 -670 10 -27 30 -79 43 -115 13
-36 37 -101 53 -145 16 -45 41 -110 55 -145 14 -36 55 -146 92 -245 69 -188
85 -230 110 -292 8 -21 69 -184 135 -362 129 -346 204 -540 219 -568 5 -10 22
-47 37 -83 42 -98 159 -322 227 -435 150 -250 314 -462 497 -645 404 -405 835
-627 1410 -727 153 -26 664 -26 830 0 204 33 318 58 510 110 119 33 373 124
495 177 22 10 84 36 137 59 193 85 497 266 679 406 128 98 221 187 674 640
535 535 610 617 734 807 l44 67 23 -57 c55 -143 118 -311 179 -477 37 -99 82
-219 101 -267 19 -49 34 -92 34 -98 0 -14 15 -12 68 9 26 11 146 56 267 101
121 45 243 90 270 100 28 11 82 31 120 45 83 31 122 46 190 73 28 11 223 84
435 162 l385 143 402 401 c330 328 402 404 397 421 -4 11 -26 70 -49 130 -23
61 -57 151 -75 200 -18 50 -39 104 -46 120 -12 31 -77 205 -124 335 -15 42
-39 105 -53 140 -13 36 -39 103 -56 150 -18 47 -39 101 -46 120 -14 35 -112
297 -166 443 -17 45 -24 75 -16 71 34 -20 363 -238 1317 -872 574 -382 1049
-696 1055 -698 9 -4 180 57 390 138 28 11 79 30 115 43 36 13 90 33 120 45 30
11 71 27 90 34 19 7 189 70 376 141 l342 127 397 398 c391 392 397 398 387
427 -6 15 -20 53 -32 83 -34 89 -49 134 -46 137 1 2 34 -9 72 -23 38 -14 83
-30 99 -34 116 -34 151 -44 235 -65 238 -59 466 -85 748 -85 888 0 1688 289
2407 869 499 403 925 926 1311 1607 193 341 334 750 399 1149 76 473 58 1003
-50 1480 -66 293 -168 580 -305 860 -197 402 -433 730 -759 1056 -326 325
-596 520 -977 704 -186 91 -439 186 -569 215 -22 5 -80 19 -130 30 -221 51
-325 62 -640 65 -165 2 -316 1 -335 -1z m710 -249 c895 -140 1684 -663 2238
-1483 331 -490 525 -1012 609 -1642 25 -189 25 -668 -1 -855 -114 -834 -450
-1488 -1026 -1996 -441 -389 -1074 -667 -1720 -756 -155 -21 -546 -24 -700 -5
-520 64 -1010 256 -1443 569 -137 99 -227 174 -365 308 -320 308 -545 614
-745 1015 -162 322 -260 608 -326 941 -46 233 -62 389 -68 650 -27 1171 464
2152 1378 2753 400 262 927 452 1423 512 153 18 603 12 746 -11z m-4576 -1950
c1203 -3214 1744 -4659 1928 -5148 121 -324 219 -589 217 -591 -3 -2 -637
-240 -1035 -389 l-51 -19 -384 255 c-211 139 -715 473 -1119 742 -2604 1730
-2841 1887 -2846 1882 -2 -2 188 -514 422 -1138 234 -624 467 -1246 518 -1384
52 -137 193 -515 315 -839 122 -324 220 -590 219 -591 -7 -7 -1290 -486 -1293
-483 -2 1 -472 1254 -1045 2783 -573 1529 -1093 2917 -1156 3084 -63 167 -114
309 -114 316 0 15 -22 6 672 267 l507 190 73 -46 c40 -26 139 -91 220 -144 81
-53 428 -281 770 -505 343 -225 853 -559 1133 -743 281 -184 635 -417 788
-517 152 -100 366 -240 475 -312 264 -174 704 -460 719 -469 16 -9 61 -131
-726 1969 -369 984 -670 1794 -667 1800 2 6 73 37 157 68 85 31 368 138 629
236 261 99 482 179 490 178 10 -2 70 -150 184 -452z m-5851 -1712 c8 -21 139
-371 292 -778 803 -2144 1065 -2848 1088 -2920 414 -1286 187 -2294 -669
-2981 -381 -305 -947 -568 -1486 -688 -265 -60 -363 -70 -653 -70 -292 0 -407
13 -620 69 -712 190 -1273 703 -1670 1529 -112 233 -99 199 -765 1981 -325
869 -622 1663 -661 1764 -38 101 -68 185 -67 187 7 6 1290 485 1293 482 6 -6
59 -148 358 -948 168 -448 463 -1238 657 -1755 193 -517 376 -990 406 -1051
115 -236 309 -475 492 -607 453 -326 1062 -314 1579 32 285 191 467 464 540
811 25 118 24 424 -1 565 -21 116 -54 247 -91 360 -23 70 -384 1036 -1111
2975 -196 523 -221 596 -206 603 35 16 1258 475 1268 476 7 1 19 -16 27 -36z"/>
<path d="M16440 12544 c-302 -37 -644 -177 -895 -365 -270 -202 -457 -468
-564 -802 -57 -180 -75 -315 -75 -562 1 -259 23 -407 98 -665 125 -431 324
-793 596 -1084 115 -123 327 -280 485 -359 210 -105 410 -155 650 -164 313
-10 593 54 895 208 431 219 719 572 839 1031 48 181 56 254 55 493 0 292 -29
466 -126 764 -228 705 -678 1227 -1223 1421 -186 66 -280 82 -500 85 -110 2
-216 1 -235 -1z m-370 -1044 c304 -59 538 -186 771 -420 357 -360 605 -922
650 -1478 24 -300 -29 -498 -171 -642 -75 -76 -164 -126 -285 -161 -70 -20
-102 -23 -255 -22 -223 0 -337 24 -541 113 -557 245 -1003 949 -1094 1730 -33
282 -5 473 93 630 19 30 46 68 61 84 33 36 142 106 201 130 143 57 380 72 570
36z"/>
<path d="M15727 11200 c-118 -21 -215 -100 -259 -209 -49 -122 -19 -462 62
-716 144 -450 358 -780 640 -989 69 -51 222 -128 308 -156 204 -66 427 -65
556 3 147 78 185 243 132 587 -56 365 -220 749 -437 1020 -188 235 -393 374
-650 440 -87 23 -280 33 -352 20z"/>
<path d="M17135 5963 c-182 -63 -361 -105 -630 -150 -151 -25 -179 -27 -505
-27 -366 0 -411 4 -710 64 l-95 20 -440 -439 c-242 -241 -454 -446 -472 -455
-30 -15 -184 -74 -353 -136 -42 -15 -105 -39 -140 -53 -36 -14 -110 -42 -165
-62 -122 -46 -229 -86 -332 -125 -470 -178 -505 -190 -572 -190 -110 1 -5 -62
-1131 685 -697 462 -635 423 -626 399 24 -61 293 -778 308 -824 25 -72 20
-168 -12 -236 -18 -37 -122 -148 -434 -461 -226 -227 -432 -429 -459 -449 -33
-25 -115 -62 -270 -120 -238 -91 -333 -126 -412 -154 -27 -10 -111 -42 -185
-70 -74 -29 -164 -63 -200 -75 -36 -13 -90 -33 -120 -45 -79 -30 -114 -43
-220 -83 -52 -19 -169 -63 -260 -98 -191 -73 -260 -83 -355 -54 -103 33 -160
101 -218 260 -14 39 -35 95 -47 125 -12 30 -30 80 -41 110 -10 30 -22 62 -25
69 -3 10 -173 -153 -507 -486 -276 -276 -540 -533 -587 -571 -202 -165 -409
-297 -676 -434 -231 -118 -607 -267 -799 -318 -16 -4 -64 -17 -105 -28 -222
-61 -577 -118 -775 -125 l-70 -2 50 -24 c144 -67 465 -185 675 -247 100 -29
309 -85 370 -99 36 -8 97 -21 135 -30 99 -22 250 -51 390 -74 108 -17 206 -31
462 -62 45 -5 158 -14 250 -19 92 -5 197 -12 232 -16 79 -7 756 -7 826 1 27 3
130 10 228 15 175 10 245 16 507 46 307 34 704 101 1040 174 52 12 115 25 140
30 61 12 412 102 530 135 670 190 1346 439 1940 716 275 128 706 349 935 479
66 37 136 77 155 88 227 127 572 343 833 522 129 87 262 180 307 213 30 23 78
57 105 77 491 358 957 755 1414 1205 196 193 526 546 646 690 27 33 52 62 55
65 4 3 37 43 75 90 38 47 85 103 104 125 20 23 50 61 68 85 17 25 88 119 157
210 69 90 126 168 126 172 0 10 2 11 -115 -29z"/>
</g>
</svg>
